# File created by Blade
# Date/Time:  Tue Jan 27 19:00:36 2015
# Frame Rate: 120.000 fps
#------------------------------------------------------
:FULLY-SPECIFIED
:DEGREES
4130
root -5.863599 31.610837 -2.948314 2.205967 4.602845 2.607509
Spine -6.382110 -5.664273 0.706012
Head 23.492475 20.749615 8.534068
LeftShoulder -18.406343 15.801400 20.767938
LeftArm 23.134979 -32.023113 -39.178849
LeftForeArm -34.878053 -0.000000 5.216371
LeftHand -8.697749 -0.000000 0.268801
LeftHandThumb1 -26.253704 0.000000 33.147579
RightShoulder -13.251718 0.641831 -31.013769
RightArm 16.329336 10.103904 39.168730
RightForeArm -23.039205 -0.000000 5.718006
RightHand -14.346272 -0.000000 13.182938
RightHandThumb1 -24.326973 -0.000000 -32.862282
LeftUpLeg 5.726082 -0.232141 -4.301806
LeftLeg 2.101126 -0.000000 -0.000000
LeftFoot -21.400681 21.597829 -15.121328
LeftToeBase 9.168884 -0.000000 -0.000000
RightUpLeg 8.119748 -2.114671 -0.909836
RightLeg -2.727046 -0.000000 0.000000
RightFoot -18.429410 -13.733864 7.422848
RightToeBase 4.586521 -0.000000 -0.000000
4131
root -5.852380 31.604877 -2.906164 2.162715 4.636166 2.620326
Spine -6.423023 -5.673043 0.726805
Head 22.940234 20.486534 8.269599
LeftShoulder -18.365113 15.772728 20.849842
LeftArm 23.016244 -31.977444 -39.011655
LeftForeArm -34.573876 0.000000 5.125116
LeftHand -8.721926 -0.000000 -1.077790
LeftHandThumb1 -26.253704 0.000000 33.147579
RightShoulder -13.252667 0.692613 -31.131972
RightArm 16.480166 10.221778 39.014972
RightForeArm -23.073816 -0.000000 5.557947
RightHand -14.176797 0.000000 13.464428
RightHandThumb1 -24.326973 -0.000000 -32.862282
LeftUpLeg 5.938280 -0.186123 -4.317834
LeftLeg 1.908427 -0.000000 -0.000000
LeftFoot -21.369030 21.540334 -15.125036
LeftToeBase 9.198886 -0.000000 -0.000000
RightUpLeg 8.287397 -2.143733 -0.931298
RightLeg -2.814515 -0.000000 0.000000
RightFoot -18.462241 -13.780423 7.348197
RightToeBase 4.695947 -0.000000 -0.000000
4132
root -5.840252 31.599524 -2.863425 2.118071 4.684249 2.655938
Spine -6.466860 -5.689894 0.717947
Head 22.356343 20.158864 7.998313
LeftShoulder -18.366949 15.656996 20.925507
LeftArm 22.966445 -31.875624 -38.836712
LeftForeArm -34.038745 0.000000 4.940077
LeftHand -8.536415 -0.000000 -2.401729
LeftHandThumb1 -26.253704 0.000000 33.147579
RightShoulder -13.209449 0.795494 -31.266718
RightArm 16.485815 10.358687 38.856152
RightForeArm -23.186448 -0.000000 5.508087
RightHand -14.193818 -0.000000 13.762925
RightHandThumb1 -24.326973 -0.000000 -32.862282
LeftUpLeg 6.157845 -0.150041 -4.357862
LeftLeg 1.696117 -0.000000 -0.000000
LeftFoot -21.294251 21.464272 -15.129782
LeftToeBase 9.224140 -0.000000 -0.000000
RightUpLeg 8.465115 -2.161116 -0.977668
RightLeg -2.906949 -0.000000 0.000000
RightFoot -18.471027 -13.829384 7.423122
RightToeBase 4.556344 -0.000000 -0.000000
4133
root -5.830742 31.594074 -2.818084 2.086543 4.717034 2.658929
Spine -6.519814 -5.662894 0.746636
Head 21.766469 19.851070 7.719688
LeftShoulder -18.334048 15.687515 20.986542
LeftArm 22.943206 -31.804326 -38.692035
LeftForeArm -33.707451 -0.000000 4.833468
LeftHand -8.486916 -0.000000 -3.610472
LeftHandThumb1 -26.253704 0.000000 33.147579
RightShoulder -13.230331 0.846242 -31.410602
RightArm 16.591794 10.617639 38.771662
RightForeArm -23.377267 -0.000000 5.385990
RightHand -14.077925 -0.000000 13.950084
RightHandThumb1 -24.326973 -0.000000 -32.862282
LeftUpLeg 6.373189 -0.111952 -4.361152
LeftLeg 1.481257 -0.000000 -0.000000
LeftFoot -21.255598 21.426409 -15.162559
LeftToeBase 9.305264 -0.000000 -0.000000
RightUpLeg 8.631572 -2.211031 -0.988219
RightLeg -3.009546 -0.000000 0.000000
RightFoot -18.465738 -13.861887 7.383522
RightToeBase 4.573583 -0.000000 -0.000000
4134
root -5.818857 31.588530 -2.777005 2.071004 4.782970 2.691322
Spine -6.583679 -5.684288 0.746228
Head 21.161185 19.484019 7.417611
LeftShoulder -18.340165 15.665135 21.032460
LeftArm 22.977140 -31.779720 -38.584640
LeftForeArm -33.308424 -0.000000 4.708350
LeftHand -8.433794 -0.000000 -4.557001
LeftHandThumb1 -26.253704 0.000000 33.147579
RightShoulder -13.227873 0.933475 -31.516069
RightArm 16.646997 10.678762 38.552923
RightForeArm -23.300010 0.000000 5.313999
RightHand -13.981964 -0.000000 14.274367
RightHandThumb1 -24.326973 -0.000000 -32.862282
LeftUpLeg 6.536933 -0.163923 -4.404091
LeftLeg 1.324129 -0.000000 -0.000000
LeftFoot -21.204075 21.450291 -15.183180
LeftToeBase 9.224724 -0.000000 -0.000000
RightUpLeg 8.778799 -2.279003 -1.032558
RightLeg -3.102134 -0.000000 0.000000
RightFoot -18.480827 -13.899531 7.375872
RightToeBase 4.534900 -0.000000 -0.000000
4135
root -5.810169 31.584262 -2.739096 2.095790 4.865310 2.720181
Spine -6.678144 -5.705693 0.739848
Head 20.558024 19.120430 7.154363
LeftShoulder -18.359158 15.571789 21.121530
LeftArm 22.996143 -31.598100 -38.440760
LeftForeArm -33.116275 -0.000000 4.522490
LeftHand -8.386850 -0.000000 -5.554913
LeftHandThumb1 -26.253704 0.000000 33.147579
RightShoulder -13.260126 1.036850 -31.586526
RightArm 16.720666 10.817278 38.317711
RightForeArm -23.422823 -0.000000 5.228488
RightHand -13.870903 -0.000000 14.753304
RightHandThumb1 -24.326973 -0.000000 -32.862282
LeftUpLeg 6.644428 -0.138371 -4.426227
LeftLeg 1.187693 -0.000000 -0.000000
LeftFoot -21.132176 21.403465 -15.152889
LeftToeBase 9.129324 -0.000000 -0.000000
RightUpLeg 8.884894 -2.388102 -1.063031
RightLeg -3.205907 -0.000000 0.000000
RightFoot -18.474377 -13.932906 7.356009
RightToeBase 4.569784 -0.000000 -0.000000
